# This file uses centimeters as units for non-parametric coordinates.

mtllib Mushroom_01.mtl
g default
v -1.262490 0.658155 10.000405
v -1.362260 0.658155 9.947322
v -1.470344 0.658155 9.980333
v -1.523428 0.658155 10.080103
v -1.490416 0.658155 10.188187
v -1.390646 0.658155 10.241271
v -1.282562 0.658155 10.208259
v -1.229479 0.658155 10.108489
v -1.250950 1.058248 9.926025
v -1.339716 1.055955 9.893358
v -1.424516 1.022343 9.930830
v -1.455676 0.977100 10.016491
v -1.414942 0.946729 10.100162
v -1.326176 0.949021 10.132829
v -1.241375 0.982634 10.095357
v -1.210216 1.027877 10.009696
v -0.689888 1.613270 9.289261
v -1.382738 1.610512 9.050553
v -2.037517 1.502762 9.361493
v -2.270666 1.353138 10.039935
v -1.945608 1.249289 10.688458
v -1.252758 1.252046 10.927166
v -0.597979 1.359796 10.616227
v -0.364830 1.509420 9.937784
v -1.059535 2.004426 9.701143
v -1.344476 2.003292 9.602972
v -1.613760 1.958978 9.730848
v -1.709646 1.897445 10.009865
v -1.575961 1.854734 10.276576
v -1.291021 1.855869 10.374747
v -1.021736 1.900183 10.246872
v -0.925850 1.961716 9.967854
v -1.121420 -0.000011 9.996039
v -1.198964 -0.000011 9.808833
v -1.198964 -0.000011 10.183245
v -1.386169 -0.000011 10.260788
v -1.573376 -0.000011 10.183244
v -1.650918 -0.000011 9.996039
v -1.573376 -0.000011 9.808833
v -1.386169 -0.000011 9.731290
vt 0.610485 0.045765
vt 0.500000 0.000000
vt 0.389515 0.045765
vt 0.343750 0.156250
vt 0.389515 0.266735
vt 0.500000 0.312500
vt 0.610485 0.266735
vt 0.656250 0.156250
vt 0.375000 0.312500
vt 0.406250 0.312500
vt 0.437500 0.312500
vt 0.468750 0.312500
vt 0.500000 0.312500
vt 0.531250 0.312500
vt 0.562500 0.312500
vt 0.593750 0.312500
vt 0.625000 0.312500
vt 0.375000 0.688440
vt 0.406250 0.688440
vt 0.437500 0.688440
vt 0.468750 0.688440
vt 0.500000 0.688440
vt 0.531250 0.688440
vt 0.562500 0.688440
vt 0.593750 0.688440
vt 0.625000 0.688440
vt 0.610485 0.733265
vt 0.500000 0.687500
vt 0.389515 0.733265
vt 0.343750 0.843750
vt 0.389515 0.954235
vt 0.500000 1.000000
vt 0.610485 0.954235
vt 0.656250 0.843750
vt 0.610485 0.954235
vt 0.500000 1.000000
vt 0.389515 0.954235
vt 0.343750 0.843750
vt 0.389515 0.733265
vt 0.500000 0.687500
vt 0.610485 0.733265
vt 0.656250 0.843750
vt 0.610485 0.954235
vt 0.500000 1.000000
vt 0.389515 0.954235
vt 0.343750 0.843750
vt 0.389515 0.733265
vt 0.500000 0.687500
vt 0.610485 0.733265
vt 0.656250 0.843750
vt 0.610485 0.045765
vt 0.656250 0.156250
vt 0.610485 0.266735
vt 0.500000 0.312500
vt 0.389515 0.266735
vt 0.343750 0.156250
vt 0.389515 0.045765
vt 0.500000 0.000000
vn 0.409180 0.162270 -0.897909
vn 0.408599 0.170228 -0.896699
vn 0.410184 -0.161891 -0.897519
vn 0.410184 -0.161891 -0.897519
vn -0.337904 0.193998 -0.920970
vn -0.337743 0.206546 -0.918297
vn -0.326393 -0.098365 -0.940102
vn -0.326393 -0.098365 -0.940102
vn -0.894030 0.198444 -0.401659
vn -0.892871 0.203211 -0.401854
vn -0.914816 0.086789 -0.394436
vn -0.914816 0.086789 -0.394436
vn -0.872944 0.301519 0.383478
vn -0.872944 0.301519 0.383478
vn -0.872944 0.301519 0.383478
vn -0.872944 0.301519 0.383478
vn -0.387015 0.378550 0.840785
vn -0.387015 0.378550 0.840785
vn -0.387015 0.378550 0.840785
vn -0.387015 0.378550 0.840785
vn 0.339809 0.071270 0.937790
vn 0.337263 0.082866 0.937756
vn 0.285948 0.280492 0.916274
vn 0.285948 0.280492 0.916274
vn 0.906264 0.080926 0.414893
vn 0.906209 0.079522 0.415286
vn 0.904616 0.050297 0.423249
vn 0.904616 0.050297 0.423249
vn 0.927361 0.119951 -0.354419
vn 0.927585 0.117210 -0.354751
vn 0.919976 -0.120703 -0.372926
vn 0.919976 -0.120703 -0.372926
vn 0.000000 -1.000000 0.000000
vn 0.000000 -1.000000 0.000000
vn 0.000000 -1.000000 0.000000
vn 0.000000 -1.000000 0.000000
vn 0.000000 -1.000000 0.000000
vn 0.000000 -1.000000 0.000000
vn 0.000000 -1.000000 0.000000
vn 0.000000 -1.000000 0.000000
vn -0.069991 0.978927 0.191840
vn -0.069991 0.978927 0.191840
vn -0.069991 0.978927 0.191840
vn -0.069991 0.978927 0.191840
vn -0.069991 0.978927 0.191840
vn -0.069991 0.978927 0.191840
vn -0.069991 0.978927 0.191840
vn -0.069991 0.978927 0.191840
vn 0.194192 -0.816224 -0.544122
vn 0.194192 -0.816224 -0.544122
vn 0.194192 -0.816224 -0.544122
vn 0.194192 -0.816224 -0.544122
vn -0.104282 -0.824648 -0.555950
vn -0.104282 -0.824648 -0.555950
vn -0.104282 -0.824648 -0.555950
vn -0.104282 -0.824648 -0.555950
vn -0.379886 -0.856347 -0.349796
vn -0.379886 -0.856347 -0.349796
vn -0.379886 -0.856347 -0.349796
vn -0.379886 -0.856347 -0.349796
vn -0.431351 -0.900777 0.050372
vn -0.431351 -0.900777 0.050372
vn -0.431351 -0.900777 0.050372
vn -0.431351 -0.900777 0.050372
vn -0.120601 -0.923346 0.364537
vn -0.120601 -0.923346 0.364537
vn -0.120601 -0.923346 0.364537
vn -0.120601 -0.923346 0.364537
vn 0.312229 -0.902523 0.296589
vn 0.312229 -0.902523 0.296588
vn 0.312229 -0.902523 0.296588
vn 0.312229 -0.902523 0.296588
vn 0.508913 -0.859733 -0.043218
vn 0.508913 -0.859733 -0.043218
vn 0.508913 -0.859733 -0.043218
vn 0.508913 -0.859733 -0.043218
vn 0.426312 -0.827789 -0.364724
vn 0.426312 -0.827789 -0.364724
vn 0.426312 -0.827789 -0.364724
vn 0.426312 -0.827789 -0.364724
vn 0.195720 0.792777 -0.577234
vn 0.195720 0.792777 -0.577234
vn 0.195720 0.792777 -0.577234
vn 0.195720 0.792777 -0.577234
vn -0.373437 0.768051 -0.520233
vn -0.373437 0.768051 -0.520233
vn -0.373437 0.768051 -0.520233
vn -0.373437 0.768051 -0.520233
vn -0.696250 0.713100 -0.082003
vn -0.696250 0.713100 -0.082003
vn -0.696249 0.713100 -0.082003
vn -0.696249 0.713100 -0.082003
vn -0.621107 0.663248 0.417527
vn -0.621107 0.663248 0.417527
vn -0.621107 0.663248 0.417527
vn -0.621107 0.663248 0.417527
vn -0.251322 0.644622 0.722011
vn -0.251322 0.644622 0.722011
vn -0.251322 0.644622 0.722011
vn -0.251322 0.644622 0.722011
vn 0.228245 0.665019 0.711093
vn 0.228246 0.665019 0.711093
vn 0.228246 0.665019 0.711093
vn 0.228246 0.665019 0.711093
vn 0.596564 0.715841 0.362882
vn 0.596564 0.715841 0.362882
vn 0.596564 0.715841 0.362882
vn 0.596564 0.715841 0.362882
vn 0.611077 0.770135 -0.182966
vn 0.611077 0.770135 -0.182966
vn 0.611077 0.770135 -0.182966
vn 0.611077 0.770135 -0.182966
vn 0.917785 0.198996 -0.343615
vn 0.917785 0.198996 -0.343615
vn 0.906544 0.088900 0.412645
vn 0.906544 0.088900 0.412645
vn 0.350558 0.019546 0.936337
vn 0.350558 0.019546 0.936337
vn -0.414036 0.034757 0.909597
vn -0.414036 0.034757 0.909597
vn -0.414036 0.034757 0.909597
vn -0.414036 0.034757 0.909597
vn -0.929167 0.125029 0.347875
vn -0.929167 0.125029 0.347875
vn -0.929167 0.125029 0.347875
vn -0.929167 0.125029 0.347875
vn -0.885052 0.233209 -0.402861
vn -0.885052 0.233209 -0.402861
vn -0.334947 0.295685 -0.894640
vn -0.334947 0.295685 -0.894640
vn 0.397431 0.282324 -0.873122
vn 0.397431 0.282324 -0.873122
s 1
g Mushrooms:pCylinder1 group2
usemtl lambert7SG
f 1/9/1 2/10/2 10/19/3 9/18/4
s 2
f 2/10/5 3/11/6 11/20/7 10/19/8
s 3
f 3/11/9 4/12/10 12/21/11 11/20/12
s off
f 4/12/13 5/13/14 13/22/15 12/21/16
f 5/13/17 6/14/18 14/23/19 13/22/20
s 4
f 6/14/21 7/15/22 15/24/23 14/23/24
s 5
f 7/15/25 8/16/26 16/25/27 15/24/28
s 6
f 8/16/29 1/17/30 9/26/31 16/25/32
s off
f 34/51/33 33/52/34 35/53/35 36/54/36 37/55/37 38/56/38 39/57/39 40/58/40
f 25/43/41 26/44/42 27/45/43 28/46/44 29/47/45 30/48/46 31/49/47 32/50/48
f 9/33/49 10/32/50 18/36/51 17/35/52
f 10/32/53 11/31/54 19/37/55 18/36/56
f 11/31/57 12/30/58 20/38/59 19/37/60
f 12/30/61 13/29/62 21/39/63 20/38/64
f 13/29/65 14/28/66 22/40/67 21/39/68
f 14/28/69 15/27/70 23/41/71 22/40/72
f 15/27/73 16/34/74 24/42/75 23/41/76
f 16/34/77 9/33/78 17/35/79 24/42/80
f 17/35/81 18/36/82 26/44/83 25/43/84
f 18/36/85 19/37/86 27/45/87 26/44/88
f 19/37/89 20/38/90 28/46/91 27/45/92
f 20/38/93 21/39/94 29/47/95 28/46/96
f 21/39/97 22/40/98 30/48/99 29/47/100
f 22/40/101 23/41/102 31/49/103 30/48/104
f 23/41/105 24/42/106 32/50/107 31/49/108
f 24/42/109 17/35/110 25/43/111 32/50/112
s 6
f 1/1/30 8/8/29 33/52/113 34/51/114
s 5
f 8/8/26 7/7/25 35/53/115 33/52/116
s 4
f 7/7/22 6/6/21 36/54/117 35/53/118
s off
f 6/6/119 5/5/120 37/55/121 36/54/122
f 5/5/123 4/4/124 38/56/125 37/55/126
s 3
f 4/4/10 3/3/9 39/57/127 38/56/128
s 2
f 3/3/6 2/2/5 40/58/129 39/57/130
s 1
f 2/2/2 1/1/1 34/51/131 40/58/132
