# This file uses centimeters as units for non-parametric coordinates.

mtllib signpost.mtl
g default
v -3.416418 0.026727 -3.174474
v -1.934341 0.026727 -3.174474
v -3.416418 0.705585 -3.174474
v -1.934341 0.705585 -3.174474
v -3.416418 0.705585 -4.898766
v -1.934341 0.705585 -4.898766
v -3.416418 0.026727 -4.898766
v -1.934341 0.026727 -4.898766
v -2.938880 1.058856 -3.730055
v -2.411879 1.058856 -3.730055
v -2.411879 1.058856 -4.343185
v -2.938880 1.058856 -4.343185
v -2.938880 11.104285 -3.730055
v -2.411879 11.104285 -3.730055
v -2.411879 11.104285 -4.343185
v -2.938880 11.104285 -4.343185
v -2.938880 12.810901 -3.730055
v -2.411879 12.810901 -3.730055
v -2.411879 12.810901 -4.343185
v -2.938880 12.810901 -4.343185
v -0.881612 11.104285 -3.730055
v -0.881612 11.104285 -4.343185
v -0.881612 12.810901 -4.343185
v -0.881612 12.810901 -3.730055
v -2.938880 11.104285 -3.730055
v -2.938880 11.104285 -4.343185
v -2.938880 12.810901 -3.730055
v -2.938880 12.810901 -4.343185
v -2.938880 11.104285 -3.730055
v -2.938880 11.104285 -4.343185
v -2.938880 12.810901 -3.730055
v -2.938880 12.810901 -4.343185
vt 0.375000 0.000000
vt 0.625000 0.000000
vt 0.375000 0.250000
vt 0.625000 0.250000
vt 0.375000 0.500000
vt 0.625000 0.500000
vt 0.375000 0.750000
vt 0.625000 0.750000
vt 0.375000 1.000000
vt 0.625000 1.000000
vt 0.875000 0.000000
vt 0.875000 0.250000
vt 0.125000 0.000000
vt 0.125000 0.250000
vt 0.375000 0.250000
vt 0.625000 0.250000
vt 0.625000 0.500000
vt 0.375000 0.500000
vt 0.375000 0.250000
vt 0.625000 0.250000
vt 0.625000 0.500000
vt 0.375000 0.500000
vt 0.375000 0.250000
vt 0.625000 0.250000
vt 0.625000 0.500000
vt 0.375000 0.500000
vt 0.625000 0.250000
vt 0.625000 0.500000
vt 0.625000 0.500000
vt 0.625000 0.250000
vt 0.375000 0.500000
vt 0.375000 0.250000
vt 0.375000 0.250000
vt 0.375000 0.500000
vt 0.375000 0.500000
vt 0.375000 0.250000
vt 0.375000 0.250000
vt 0.375000 0.500000
vn 0.000000 0.000000 1.000000
vn 0.000000 0.000000 1.000000
vn 0.000000 0.265053 0.964234
vn 0.000000 0.265053 0.964234
vn 0.000000 1.000000 0.000000
vn 0.000000 1.000000 0.000000
vn 0.000000 1.000000 0.000000
vn 0.000000 1.000000 0.000000
vn 0.000000 0.265053 -0.964234
vn 0.000000 0.265053 -0.964234
vn 0.000000 0.000000 -1.000000
vn 0.000000 0.000000 -1.000000
vn 0.000000 -1.000000 0.000000
vn 0.000000 -1.000000 0.000000
vn 0.000000 -1.000000 0.000000
vn 0.000000 -1.000000 0.000000
vn 1.000000 0.000000 0.000000
vn 1.000000 0.000000 0.000000
vn 0.978666 0.205458 0.000000
vn 0.978666 0.205458 0.000000
vn -1.000000 0.000000 0.000000
vn -1.000000 0.000000 0.000000
vn -0.978666 0.205458 0.000000
vn -0.978666 0.205458 0.000000
vn 0.000000 0.843855 0.536572
vn 0.000000 0.843855 0.536572
vn 0.594726 0.803928 0.000000
vn 0.594726 0.803928 0.000000
vn 0.000000 0.843855 -0.536572
vn 0.000000 0.843855 -0.536572
vn -0.594726 0.803928 0.000000
vn -0.594726 0.803928 0.000000
vn 0.000000 0.000000 1.000000
vn 0.000000 0.000000 1.000000
vn 0.000000 0.000000 1.000000
vn 0.000000 0.000000 1.000000
vn 1.000000 0.000000 0.000000
vn 1.000000 0.000000 0.000000
vn 1.000000 0.000000 0.000000
vn 1.000000 0.000000 0.000000
vn 0.000000 0.000000 -1.000000
vn 0.000000 0.000000 -1.000000
vn 0.000000 0.000000 -1.000000
vn 0.000000 0.000000 -1.000000
vn -1.000000 0.000000 0.000000
vn -1.000000 0.000000 0.000000
vn -1.000000 0.000000 0.000000
vn -1.000000 0.000000 0.000000
vn 0.000000 0.000000 1.000000
vn 0.000000 0.000000 1.000000
vn 0.000000 0.000000 1.000000
vn 0.000000 0.000000 1.000000
vn 1.000000 0.000000 0.000000
vn 1.000000 0.000000 0.000000
vn 1.000000 0.000000 0.000000
vn 1.000000 0.000000 0.000000
vn 0.000000 0.000000 -1.000000
vn 0.000000 0.000000 -1.000000
vn 0.000000 0.000000 -1.000000
vn 0.000000 0.000000 -1.000000
vn -1.000000 0.000000 0.000000
vn -1.000000 0.000000 0.000000
vn -1.000000 0.000000 0.000000
vn -1.000000 0.000000 0.000000
vn 0.000000 -1.000000 0.000000
vn 0.000000 -1.000000 0.000000
vn 0.000000 -1.000000 0.000000
vn 0.000000 -1.000000 0.000000
vn 0.000000 0.000000 -1.000000
vn 0.000000 0.000000 -1.000000
vn 0.000000 1.000000 0.000000
vn 0.000000 1.000000 0.000000
vn 0.000000 0.000000 1.000000
vn 0.000000 0.000000 1.000000
vn 0.000000 0.000000 0.000000
vn 0.000000 0.000000 0.000000
vn 0.000000 0.000000 0.000000
vn 0.000000 0.000000 0.000000
vn 0.000000 0.000000 0.000000
vn 0.000000 0.000000 0.000000
vn 0.000000 0.000000 0.000000
vn 0.000000 0.000000 0.000000
vn 0.000000 0.000000 0.000000
vn 0.000000 0.000000 0.000000
vn 0.000000 0.000000 0.000000
vn 0.000000 0.000000 0.000000
vn 0.000000 0.000000 0.000000
vn 0.000000 0.000000 0.000000
vn 0.000000 0.000000 0.000000
vn 0.000000 0.000000 0.000000
vn 0.000000 0.000000 0.000000
vn 0.000000 0.000000 0.000000
vn 0.000000 0.000000 0.000000
vn 0.000000 0.000000 0.000000
vn 0.000000 0.000000 0.000000
vn 0.000000 0.000000 0.000000
vn 0.000000 0.000000 0.000000
vn 0.000000 0.000000 0.000000
vn 0.000000 0.000000 0.000000
vn 0.000000 0.000000 0.000000
vn 0.000000 0.000000 0.000000
vn 0.000000 0.000000 0.000000
vn 0.000000 0.000000 0.000000
vn 0.000000 0.000000 0.000000
vn 0.000000 0.000000 0.000000
vn 0.000000 0.000000 0.000000
s 1
g pCube1
usemtl initialShadingGroup
f 1/1/1 2/2/2 4/4/3 3/3/4
s 2
f 17/23/5 18/24/6 19/25/7 20/26/8
s 3
f 5/5/9 6/6/10 8/8/11 7/7/12
s off
f 7/7/13 8/8/14 2/10/15 1/9/16
s 4
f 2/2/17 8/11/18 6/12/19 4/4/20
s 5
f 7/13/21 1/1/22 3/3/23 5/14/24
s 1
f 3/3/4 4/4/3 10/16/25 9/15/26
s 4
f 4/4/20 6/6/19 11/17/27 10/16/28
s 3
f 6/6/10 5/5/9 12/18/29 11/17/30
s 5
f 5/5/24 3/3/23 9/15/31 12/18/32
s off
f 9/15/33 10/16/34 14/20/35 13/19/36
f 10/16/37 11/17/38 15/21/39 14/20/40
f 11/17/41 12/18/42 16/22/43 15/21/44
f 12/18/45 9/15/46 13/19/47 16/22/48
s 6
f 13/19/49 14/20/50 18/24/51 17/23/52
s off
f 21/27/53 22/28/54 23/29/55 24/30/56
s 7
f 15/21/57 16/22/58 20/26/59 19/25/60
s off
f 30/35/61 29/36/62 31/37/63 32/38/64
f 14/20/65 15/21/66 22/28/67 21/27/68
s 7
f 15/21/57 19/25/60 23/29/69 22/28/70
s 2
f 19/25/7 18/24/6 24/30/71 23/29/72
s 6
f 18/24/51 14/20/50 21/27/73 24/30/74
s off
f 16/22/75 13/19/76 25/32/77 26/31/78
f 13/19/79 17/23/80 27/33/81 25/32/82
f 17/23/83 20/26/84 28/34/85 27/33/86
f 20/26/87 16/22/88 26/31/89 28/34/90
f 26/31/91 25/32/92 29/36/93 30/35/94
f 25/32/95 27/33/96 31/37/97 29/36/98
f 27/33/99 28/34/100 32/38/101 31/37/102
f 28/34/103 26/31/104 30/35/105 32/38/106
