# This file uses centimeters as units for non-parametric coordinates.

mtllib Tree_Large.mtl
g default
v -1.214804 3.458403 -0.139681
v -3.209986 2.241067 1.248686
v -3.647637 3.930970 -0.462582
v -2.912755 2.946069 -0.301095
v -4.445908 3.072507 1.987859
v -3.892044 3.595937 3.661712
v -3.209986 6.594546 1.248686
v -4.330952 5.504091 0.250953
v -2.194714 4.429695 -0.870421
v -4.445908 5.763106 1.987859
v -1.022554 4.342716 -0.336429
v -1.825239 2.400643 2.282692
v -0.620117 5.775510 2.742705
v -0.611610 3.040329 1.505839
v -2.331840 3.072507 3.652201
v -4.347352 5.593547 2.916737
v -1.903420 6.594546 2.277306
v -1.270838 4.308661 3.841618
v -1.195879 6.302918 1.917918
v -2.820271 4.417806 4.078168
v -2.498474 6.871864 1.718533
v -0.607696 5.708117 0.892969
v -3.171942 6.417326 -0.035085
v -1.620049 6.657758 0.828455
v -0.642327 4.503611 2.950773
v -1.880613 6.411508 3.327743
v -1.686792 5.148870 4.021510
v -4.180015 4.439474 3.735489
v -4.053851 6.337891 1.576609
v -3.442353 6.421681 3.168540
v -4.675329 4.454160 0.247984
v -4.847163 5.384467 1.624871
v -3.353976 5.049259 -0.674045
v -2.532704 2.699945 1.734147
v -3.026716 2.532695 0.476555
v -1.806189 3.188351 -0.564923
v -0.779514 3.113136 0.504627
v -1.195879 2.532695 1.917918
v -1.803516 2.307720 0.608108
v -2.086690 2.532695 3.049437
v -3.271997 3.148096 3.762457
v -4.373449 3.283066 2.966253
v -3.917527 2.532695 1.608075
v -3.314472 2.435683 2.725524
v -0.248833 3.676663 1.957725
v -0.023024 4.419651 0.873232
v -3.339018 3.474096 -0.458237
v -5.100033 3.871921 1.565132
v -4.237369 3.041046 0.601927
v -4.889355 4.417806 2.745576
v -1.729594 3.651822 3.938052
v -0.926610 3.312717 3.123492
v -0.125923 4.628474 2.489080
vt 1.000000 0.383860
vt 0.250000 0.116140
vt 0.191930 0.500000
vt 0.125000 0.304087
vt 0.375000 0.304087
vt 0.500000 0.383860
vt 0.250000 0.883860
vt 0.316220 0.495089
vt 0.075851 0.522810
vt 0.375000 0.695913
vt 1.000000 0.495906
vt 0.750000 0.116140
vt 0.816139 0.497118
vt 0.875000 0.304087
vt 0.625000 0.304087
vt 0.443786 0.665921
vt 0.750000 0.883860
vt 0.691930 0.500000
vt 0.848133 0.748953
vt 0.585191 0.500806
vt 0.500000 1.000000
vt 0.924708 0.689355
vt 0.162065 0.809707
vt 1.000000 0.823792
vt 0.750000 0.500000
vt 0.661896 0.800000
vt 0.661896 0.600000
vt 0.493803 0.498144
vt 0.338104 0.800000
vt 0.500000 0.823792
vt 0.250000 0.500000
vt 0.338104 0.600000
vt 0.161896 0.600000
vt 0.500000 1.000000
vt 0.161896 0.200000
vt 0.058070 0.333333
vt 0.941930 0.333333
vt 0.838104 0.200000
vt 1.000000 0.176208
vt 0.661896 0.200000
vt 0.558070 0.333333
vt 0.441930 0.333333
vt 0.338104 0.200000
vt 0.500000 0.176208
vt 0.838104 0.400000
vt 0.911896 0.500000
vt 0.161896 0.400000
vt 0.338104 0.400000
vt 0.250000 0.323792
vt 0.411896 0.500000
vt 0.661896 0.400000
vt 0.750000 0.323792
vt 1.194384 0.802984
vt 1.250000 0.883860
vt 1.250000 0.116140
vt 1.161896 0.200000
vt 1.125000 0.304087
vt 1.058070 0.333333
vt 1.090029 0.498883
vt 0.825029 0.457810
vn 0.281963 0.701370 -0.654658
vn -0.095525 0.971881 -0.215226
vn 0.085267 0.991647 -0.096777
vn 0.378953 0.714044 -0.588673
vn 0.382798 0.916664 0.114861
vn 0.493741 0.867032 0.066896
vn 0.451398 0.529118 -0.718522
vn 0.413384 0.492169 -0.766083
vn 0.416035 0.397028 0.818098
vn 0.751162 0.148613 0.643172
vn 0.751162 0.148613 0.643172
vn 0.575733 0.590153 0.565906
vn 0.691988 0.721584 -0.021643
vn 0.565385 0.818381 0.102923
vn 0.485673 0.857482 0.169839
vn 0.328463 0.672782 0.662930
vn 0.206507 0.495334 0.843800
vn -0.675832 0.587848 0.444618
vn -0.198820 0.377309 0.904493
vn -0.270492 0.671207 0.690156
vn -0.153489 0.368542 0.916852
vn -0.089596 0.658009 0.747661
vn 0.042103 0.964738 0.259823
vn -0.159792 0.975939 0.148358
vn -0.328064 0.943571 0.045253
vn -0.490796 0.863220 0.118194
vn -0.703436 0.675486 0.221125
vn -0.373539 0.328789 -0.867391
vn -0.599267 0.099968 -0.794283
vn -0.599267 0.099968 -0.794283
vn -0.566042 0.513645 -0.644799
vn -0.764232 0.628587 -0.144318
vn -0.764232 0.628587 -0.144318
vn -0.636676 0.739982 -0.216956
vn -0.545126 0.797347 -0.258991
vn -0.417795 0.662436 -0.621792
vn -0.235969 0.436822 -0.868047
vn 0.266093 -0.962360 -0.055300
vn -0.131168 -0.989930 0.053230
vn -0.030646 -0.996848 0.073179
vn 0.240984 -0.927630 -0.285359
vn 0.090774 -0.991217 0.096167
vn 0.026978 -0.957646 -0.286683
vn -0.025249 -0.832390 -0.553615
vn 0.243895 -0.776223 -0.581372
vn 0.534163 -0.635552 -0.557444
vn 0.583160 -0.739134 -0.337053
vn 0.596494 -0.788810 -0.148235
vn -0.285073 -0.937072 0.201566
vn 0.106437 -0.984794 0.137306
vn 0.022016 -0.999714 0.009292
vn -0.246993 -0.917053 0.313062
vn -0.055313 -0.992668 -0.107470
vn -0.057450 -0.963784 0.260423
vn -0.051466 -0.796751 0.602112
vn -0.290091 -0.754499 0.588709
vn -0.481034 -0.682981 0.549675
vn -0.541681 -0.739894 0.398923
vn -0.587346 -0.775572 0.231326
vn 0.929308 -0.361862 -0.073777
vn 0.882760 -0.445342 -0.149682
vn 0.830027 -0.359528 -0.426373
vn 0.942535 -0.005107 -0.334069
vn 0.741289 -0.272914 -0.613196
vn 0.763559 -0.100708 -0.637836
vn 0.886495 0.400387 -0.231983
vn 0.917687 0.397218 -0.008310
vn 0.961505 0.274157 0.018610
vn 0.470760 0.135569 -0.871783
vn 0.484422 -0.158551 -0.860347
vn 0.168138 -0.248671 -0.953883
vn 0.192870 0.092484 -0.976856
vn -0.122333 -0.303417 -0.944972
vn -0.169006 -0.228886 -0.958670
vn -0.224786 -0.134360 -0.965100
vn -0.224786 -0.134360 -0.965100
vn 0.387194 0.512479 -0.766450
vn -0.437743 -0.769756 -0.464604
vn -0.434001 -0.833607 -0.341676
vn -0.613783 -0.759221 -0.216455
vn -0.720429 -0.548631 -0.424248
vn -0.744523 -0.660508 -0.097033
vn -0.912483 -0.313310 -0.263082
vn -0.936956 -0.083937 -0.339218
vn -0.882534 -0.167431 -0.439431
vn -0.635058 -0.382165 -0.671306
vn -0.552602 -0.541720 -0.633380
vn -0.434253 -0.703145 -0.563038
vn -0.998630 -0.052213 0.003488
vn -0.861574 -0.433120 0.264760
vn -0.830783 -0.362822 0.422090
vn -0.965886 -0.008131 0.258840
vn -0.761740 -0.265655 0.590914
vn -0.792771 -0.111119 0.599305
vn -0.849668 0.393906 0.350574
vn -0.862185 0.432640 0.263552
vn -0.969114 0.243475 -0.039222
vn -0.974975 0.168715 -0.144774
vn 0.422867 -0.737161 0.527046
vn 0.468944 -0.802367 0.369186
vn 0.628086 -0.714574 0.308046
vn 0.679720 -0.480997 0.553734
vn 0.741695 -0.622694 0.249280
vn 0.800391 -0.390837 0.454555
vn 0.785026 -0.147094 0.601746
vn 0.785026 -0.147094 0.601746
vn 0.775949 -0.159702 0.610244
vn 0.741091 -0.204882 0.639381
vn 0.554533 -0.471341 0.685807
vn 0.362788 -0.647722 0.669956
vn -0.251081 -0.156597 0.955215
vn -0.251081 -0.156597 0.955215
vn -0.125099 -0.236844 0.963460
vn -0.034850 -0.182346 0.982617
vn -0.008886 -0.304782 0.952381
vn 0.072328 -0.179670 0.981064
vn 0.146576 -0.059238 0.987424
vn 0.146576 -0.059238 0.987424
s 1
g pPlatonic1 group5 group1
usemtl lambert2SG
f 23/53/1 7/54/2 21/21/3 24/24/4
f 21/21/3 17/17/5 19/19/6 24/24/4
f 19/19/6 22/22/7 24/24/4
f 22/22/7 11/11/8 23/53/1 24/24/4
s 2
f 27/27/9 18/18/10 25/25/11 13/13/12
f 22/22/13 19/19/14 13/13/12
f 19/19/14 17/17/15 26/26/16 13/13/12
f 26/26/16 20/20/17 27/27/9 13/13/12
s 4
f 16/16/18 28/28/19 30/30/20
f 28/28/19 20/20/21 26/26/22 30/30/20
f 26/26/22 17/17/23 21/21/24 30/30/20
f 21/21/24 7/7/25 29/29/26 30/30/20
f 29/29/26 10/10/27 16/16/18 30/30/20
s 5
f 33/33/28 3/3/29 31/31/30 8/8/31
f 32/32/32 10/10/33 29/29/34 8/8/31
f 29/29/34 7/7/35 23/23/36 8/8/31
f 23/23/36 9/9/37 33/33/28 8/8/31
s 7
f 38/38/38 12/12/39 34/34/40 39/39/41
f 34/34/40 2/55/42 35/56/43 39/39/41
f 35/56/43 4/57/44 36/58/45 39/39/41
f 36/58/45 1/1/46 37/37/47 39/39/41
f 37/37/47 14/14/48 38/38/38 39/39/41
s 8
f 43/43/49 2/2/50 34/34/51 44/44/52
f 34/34/51 12/12/53 40/40/54 44/44/52
f 40/40/54 15/15/55 41/41/56 44/44/52
f 41/41/56 6/6/57 42/42/58 44/44/52
f 42/42/58 5/5/59 43/43/49 44/44/52
s 9
f 45/45/60 14/14/61 37/37/62 46/46/63
f 37/37/62 1/1/64 11/11/65 46/46/63
f 11/11/65 22/22/66 46/46/63
f 22/22/66 13/13/67 53/60/68
s 10
f 11/11/69 1/1/70 36/58/71 9/59/72
f 36/36/71 4/4/73 47/47/74 9/9/72
f 47/47/74 3/3/75 33/33/76 9/9/72
f 23/53/77 11/11/69 9/59/72
s 11
f 35/35/78 2/2/79 43/43/80 49/49/81
f 43/43/80 5/5/82 48/48/83 49/49/81
f 48/48/83 8/8/84 31/31/85 49/49/81
f 31/31/85 3/3/86 47/47/87 49/49/81
f 47/47/87 4/4/88 35/35/78 49/49/81
s 12
f 48/48/89 5/5/90 42/42/91 50/50/92
f 42/42/91 6/6/93 28/28/94 50/50/92
f 28/28/94 16/16/95 50/50/92
f 16/16/95 10/10/96 32/32/97 50/50/92
f 32/32/97 8/8/98 48/48/89 50/50/92
s 13
f 40/40/99 12/12/100 38/38/101 52/52/102
f 38/38/101 14/14/103 45/45/104 52/52/102
f 45/45/104 53/60/105 13/13/106 25/25/107 52/52/102
f 25/25/107 18/18/108 51/51/109 52/52/102
f 51/51/109 15/15/110 40/40/99 52/52/102
s 14
f 28/28/111 6/6/112 41/41/113 20/20/114
f 41/41/113 15/15/115 51/51/116 20/20/114
f 51/51/116 18/18/117 27/27/118 20/20/114
s 9
f 46/46/63 53/60/68 45/45/60
f 22/22/66 53/60/68 46/46/63
g default
v -1.913462 -0.000895 1.585450
v -2.181432 -0.000895 1.168004
v -2.630855 -0.000895 1.106297
v -3.087856 -0.000895 1.421556
v -3.157511 -0.000895 1.972264
v -2.517553 -0.000895 2.374722
v -2.131770 -0.000895 2.097533
v -2.005031 0.846565 1.540719
v -2.268641 0.846565 1.214380
v -2.688140 0.846565 1.217009
v -2.947638 0.846565 1.546627
v -2.851727 0.846565 1.955024
v -2.472630 0.846565 2.134669
v -2.095815 0.846565 1.950286
v -2.332195 1.608795 1.683080
v -2.531221 1.608795 1.436693
v -2.847944 1.608795 1.438678
v -3.043866 1.608795 1.687540
v -2.971453 1.608795 1.995881
v -2.685234 1.608795 2.131513
v -2.400737 1.608795 1.992304
v -2.246177 2.277118 1.591659
v -2.377537 2.277118 1.429041
v -2.586578 2.277118 1.430351
v -2.715889 2.277118 1.594603
v -2.668095 2.277118 1.798112
v -2.479187 2.277118 1.887631
v -2.291416 2.277118 1.795751
v -2.325702 3.036456 1.708746
v -2.455090 3.036456 1.548568
v -2.660995 3.036456 1.549859
v -2.788366 3.036456 1.711646
v -2.741289 3.036456 1.912101
v -2.555215 3.036456 2.000277
v -2.370262 3.036456 1.909776
v -2.236918 1.386818 1.641621
v -2.470665 1.433011 1.385424
v -1.747543 1.764488 1.117935
v -1.827452 1.791078 0.982849
v -1.880874 1.892264 1.039735
v -1.820690 1.892264 1.176815
v -1.368936 1.788034 0.913916
v -1.413363 1.802818 0.838814
v -1.443063 1.859073 0.870440
v -1.409603 1.859073 0.946650
v -2.005709 1.789729 1.359938
v -1.948132 1.821638 1.302951
v -1.934184 1.620450 1.317662
v -1.876154 1.665233 1.255564
v -1.632118 2.020721 1.629565
v -1.621070 1.957985 1.636185
v -1.579119 1.959844 1.585059
v -1.592065 2.019176 1.584873
v -2.730847 2.433836 1.618759
v -2.744564 2.577548 1.640911
v -2.725209 2.524435 1.693554
v -3.081528 2.559491 1.672590
v -3.108235 2.531007 1.641546
v -3.074846 2.582486 1.650157
v -3.255624 2.687378 1.566682
v -3.282331 2.658893 1.535638
v -3.248942 2.710373 1.544249
v -2.495091 2.435957 1.911194
v -2.312646 2.481583 1.826454
v -2.323729 2.588319 1.842482
v -2.089652 2.659215 2.184450
v -2.176721 2.613589 2.148044
v -2.090399 2.765951 2.187349
vt 0.597420 0.034089
vt 0.465231 0.003918
vt 0.359224 0.088456
vt 0.359224 0.224044
vt 0.465231 0.308582
vt 0.597420 0.278411
vt 0.656250 0.156250
vt 0.375000 0.312500
vt 0.410714 0.312500
vt 0.446429 0.312500
vt 0.482143 0.312500
vt 0.517857 0.312500
vt 0.553571 0.312500
vt 0.589286 0.312500
vt 0.625000 0.312500
vt 0.375000 0.406485
vt 0.410714 0.406485
vt 0.446429 0.406485
vt 0.482143 0.406485
vt 0.517857 0.406485
vt 0.553571 0.406485
vt 0.589286 0.406485
vt 0.625000 0.406485
vt 0.375000 0.500470
vt 0.410714 0.500470
vt 0.446429 0.500470
vt 0.482143 0.500470
vt 0.517857 0.500470
vt 0.553571 0.500470
vt 0.589286 0.500470
vt 0.625000 0.500470
vt 0.375000 0.594455
vt 0.410714 0.594455
vt 0.446429 0.594455
vt 0.482143 0.594455
vt 0.517857 0.594455
vt 0.553571 0.594455
vt 0.589286 0.594455
vt 0.625000 0.594455
vt 0.375000 0.688440
vt 0.410714 0.688440
vt 0.446429 0.688440
vt 0.482143 0.688440
vt 0.517857 0.688440
vt 0.553571 0.688440
vt 0.589286 0.688440
vt 0.625000 0.688440
vt 0.597420 0.721589
vt 0.465231 0.691418
vt 0.359224 0.775956
vt 0.359224 0.911544
vt 0.465231 0.996082
vt 0.597420 0.965911
vt 0.656250 0.843750
vt 0.625000 0.473100
vt 0.375000 0.473100
vt 0.410714 0.478795
vt 0.375000 0.473100
vt 0.410714 0.478795
vt 0.410714 0.500470
vt 0.375000 0.500470
vt 0.375000 0.473100
vt 0.410714 0.478795
vt 0.410714 0.500470
vt 0.375000 0.500470
vt 0.375000 0.500470
vt 0.375000 0.500470
vt 0.375000 0.473100
vt 0.375000 0.473100
vt 0.375000 0.500470
vt 0.375000 0.473100
vt 0.375000 0.473100
vt 0.375000 0.500470
vt 0.482143 0.613852
vt 0.482143 0.631640
vt 0.492915 0.625066
vt 0.482143 0.613852
vt 0.492915 0.625066
vt 0.482143 0.631640
vt 0.482143 0.613852
vt 0.492915 0.625066
vt 0.482143 0.631640
vt 0.553571 0.614115
vt 0.589286 0.619762
vt 0.589286 0.632973
vt 0.553571 0.614115
vt 0.589286 0.619762
vt 0.589286 0.632973
vn 0.810557 0.086059 -0.579302
vn 0.810557 0.086059 -0.579302
vn 0.782823 0.212397 -0.584873
vn 0.785926 0.200911 -0.584770
vn 0.067508 0.097781 -0.992916
vn 0.067508 0.097781 -0.992916
vn 0.032268 0.185482 -0.982118
vn 0.040460 0.165310 -0.985411
vn -0.662867 0.134888 -0.736487
vn -0.662867 0.134888 -0.736487
vn -0.720619 0.082769 -0.688374
vn -0.706465 0.096125 -0.701190
vn -0.967153 0.252812 0.026476
vn -0.967153 0.252812 0.026476
vn -0.990285 0.082278 0.112099
vn -0.989164 0.107836 0.099626
vn -0.482908 0.228255 0.845399
vn -0.482908 0.228255 0.845399
vn -0.471434 0.124050 0.873133
vn -0.470287 0.115721 0.874894
vn 0.510413 0.168342 0.843291
vn 0.510413 0.168342 0.843291
vn 0.482757 0.152194 0.862428
vn 0.478629 0.149799 0.865144
vn 0.945975 0.066973 0.317249
vn 0.945975 0.066973 0.317249
vn 0.944212 0.179056 0.276411
vn 0.943469 0.188161 0.272878
vn 0.746806 0.578600 -0.327877
vn 0.746806 0.578600 -0.327877
vn 0.746806 0.578600 -0.327877
vn 0.746806 0.578600 -0.327877
vn -0.006165 0.180533 -0.983550
vn -0.006171 0.175059 -0.984539
vn -0.006020 0.278078 -0.960539
vn -0.780447 0.115708 -0.614422
vn -0.780052 0.119945 -0.614111
vn -0.970491 0.078742 0.227918
vn -0.970222 0.082168 0.227854
vn -0.426264 0.095658 0.899527
vn -0.426365 0.093159 0.899741
vn 0.434602 0.149208 0.888177
vn 0.434679 0.148041 0.888334
vn 0.913047 0.354099 0.202384
vn 0.957034 0.197697 0.212134
vn 0.955344 0.206097 0.211760
vn 0.764780 -0.182939 -0.617774
vn 0.764780 -0.182939 -0.617774
vn 0.777675 -0.024461 -0.628190
vn 0.777850 -0.012192 -0.628331
vn -0.006256 0.062404 -0.998031
vn -0.006252 0.072337 -0.997361
vn -0.773961 0.172393 -0.609316
vn -0.775269 0.162588 -0.610346
vn -0.951495 0.211481 0.223456
vn -0.950005 0.218434 0.223106
vn -0.423434 0.149207 0.893555
vn -0.421372 0.178227 0.889203
vn 0.435338 0.137656 0.889681
vn 0.434806 0.146097 0.888594
vn 0.976138 -0.018422 0.216369
vn 0.976081 -0.021329 0.216356
vn 0.765822 0.175592 -0.618615
vn 0.765822 0.175592 -0.618615
vn -0.006192 0.154875 -0.987915
vn -0.006192 0.154875 -0.987915
vn -0.785561 0.020347 -0.618449
vn -0.785561 0.020347 -0.618449
vn -0.785562 0.020347 -0.618449
vn -0.785562 0.020347 -0.618449
vn -0.965616 -0.127120 0.226773
vn -0.965616 -0.127120 0.226773
vn -0.965616 -0.127120 0.226773
vn -0.965616 -0.127120 0.226773
vn -0.965616 -0.127120 0.226773
vn -0.421678 -0.174228 0.889850
vn -0.421678 -0.174228 0.889850
vn -0.421678 -0.174228 0.889850
vn 0.437782 -0.088891 0.894676
vn 0.437782 -0.088891 0.894676
vn 0.437783 -0.088891 0.894676
vn 0.437782 -0.088891 0.894676
vn 0.973996 0.068716 0.215894
vn 0.973996 0.068716 0.215894
vn 0.973996 0.068716 0.215894
vn 0.973996 0.068716 0.215894
vn -0.000000 -1.000000 0.000000
vn -0.000000 -1.000000 0.000000
vn -0.000000 -1.000000 0.000000
vn -0.000000 -1.000000 0.000000
vn -0.000000 -1.000000 0.000000
vn -0.000000 -1.000000 0.000000
vn -0.000000 -1.000000 0.000000
vn 0.000000 1.000000 -0.000000
vn 0.000000 1.000000 -0.000000
vn 0.000000 1.000000 -0.000000
vn 0.000000 1.000000 -0.000000
vn 0.000000 1.000000 -0.000000
vn 0.000000 1.000000 -0.000000
vn 0.000000 1.000000 -0.000000
vn 0.709058 0.411316 -0.572762
vn 0.709058 0.411316 -0.572762
vn 0.266375 -0.886476 -0.378425
vn 0.266375 -0.886476 -0.378425
vn 0.210702 -0.915534 -0.342641
vn 0.215241 -0.913364 -0.345598
vn 0.307098 -0.894563 -0.324727
vn 0.297525 -0.893010 -0.337655
vn -0.556554 0.093341 -0.825551
vn -0.556554 0.093341 -0.825551
vn -0.530340 0.123709 -0.838711
vn -0.489948 0.168099 -0.855391
vn -0.298402 0.932882 0.201709
vn -0.298402 0.932882 0.201709
vn -0.308841 0.934373 0.177662
vn -0.312939 0.934788 0.168051
vn -0.233442 0.958996 0.160724
vn -0.214651 0.965281 0.148853
vn 0.746703 0.182441 0.639648
vn 0.746703 0.182441 0.639648
vn 0.746703 0.182441 0.639648
vn 0.746703 0.182441 0.639648
vn -0.032746 -0.984139 -0.174352
vn -0.032746 -0.984139 -0.174352
vn -0.318344 0.331270 -0.888210
vn -0.318344 0.331270 -0.888210
vn 0.064647 0.997504 -0.028383
vn 0.064647 0.997504 -0.028383
vn 0.614022 0.000235 0.789289
vn 0.554367 -0.058402 0.830221
vn 0.476634 -0.127924 0.869744
vn 0.476634 -0.127924 0.869744
vn 0.668669 0.128324 0.732404
vn 0.668669 0.128324 0.732404
vn 0.668669 0.128324 0.732404
vn 0.668669 0.128324 0.732404
vn 0.688227 0.081904 0.720857
vn 0.688227 0.081904 0.720857
vn -0.468963 -0.294844 0.832551
vn -0.468963 -0.294844 0.832551
vn -0.468963 -0.294844 0.832551
vn -0.468963 -0.294844 0.832551
vn 0.592779 -0.779541 0.202309
vn 0.592779 -0.779541 0.202309
vn 0.476413 0.362766 -0.800894
vn 0.476413 0.362766 -0.800894
vn 0.476413 0.362766 -0.800894
vn 0.476413 0.362766 -0.800894
vn -0.422118 0.896016 -0.137737
vn -0.422118 0.896016 -0.137737
vn -0.829435 0.494502 0.259818
vn -0.829435 0.494502 0.259818
vn -0.829435 0.494502 0.259818
vn -0.113912 -0.642529 0.757747
vn -0.113912 -0.642529 0.757747
vn -0.113912 -0.642529 0.757747
vn -0.113912 -0.642529 0.757747
vn 0.028926 0.704407 0.709207
vn 0.028926 0.704407 0.709207
vn 0.039793 0.699285 0.713734
vn 0.036137 0.701022 0.712224
vn -0.021919 0.157796 -0.987229
vn -0.021919 0.157796 -0.987228
vn -0.021919 0.157796 -0.987228
vn -0.021919 0.157796 -0.987229
vn -0.623465 -0.229877 0.747293
vn -0.623465 -0.229877 0.747293
vn -0.623465 -0.229877 0.747293
vn -0.623465 -0.229877 0.747293
vn 0.064569 0.687164 0.723627
vn 0.064569 0.687164 0.723627
vn 0.439638 -0.136663 -0.887717
vn 0.439638 -0.136663 -0.887717
vn 0.439638 -0.136663 -0.887717
vn 0.439638 -0.136663 -0.887717
vn 0.437782 -0.088890 0.894676
vn 0.437782 -0.088890 0.894676
vn -0.373179 -0.027796 0.927343
vn -0.373179 -0.027796 0.927343
vn -0.373179 -0.027796 0.927343
vn 0.348528 -0.909627 0.226070
vn 0.348528 -0.909627 0.226070
vn 0.348528 -0.909627 0.226070
vn 0.348528 -0.909627 0.226070
vn 0.811989 0.096041 -0.575717
vn 0.811989 0.096041 -0.575717
vn 0.811989 0.096041 -0.575717
vn 0.811989 0.096041 -0.575717
vn -0.716185 0.633823 0.292144
vn -0.716185 0.633823 0.292144
vn -0.716185 0.633823 0.292144
vn -0.716185 0.633823 0.292144
s 1
g group5 group1 pCylinder1
usemtl lambert3SG
f 54/68/119 55/69/120 62/77/121 61/76/122
s 2
f 55/69/123 56/70/124 63/78/125 62/77/126
s 3
f 56/70/127 57/71/128 64/79/129 63/78/130
s 4
f 57/71/131 58/72/132 65/80/133 64/79/134
s 5
f 58/72/135 59/73/136 66/81/137 65/80/138
s 6
f 59/73/139 60/74/140 67/82/141 66/81/142
s 7
f 60/74/143 54/75/144 61/83/145 67/82/146
s off
f 95/122/147 96/123/148 97/124/149 98/125/150
s 2
f 62/77/126 63/78/125 70/86/151 69/85/152 90/117/153
s 3
f 63/78/130 64/79/129 71/87/154 70/86/155
s 4
f 64/79/134 65/80/133 72/88/156 71/87/157
s 5
f 65/80/138 66/81/137 73/89/158 72/88/159
s 6
f 66/81/142 67/82/141 74/90/160 73/89/161
s 7
f 67/82/146 61/83/145 89/115/162 68/91/163 74/90/164
s 8
f 68/84/165 69/85/166 76/93/167 75/92/168
s 2
f 69/85/152 70/86/151 77/94/169 76/93/170
s 3
f 70/86/155 71/87/154 78/95/171 77/94/172
s 4
f 71/87/157 72/88/156 79/96/173 78/95/174
s 5
f 72/88/159 73/89/158 80/97/175 79/96/176
s 6
f 73/89/161 74/90/160 81/98/177 80/97/178
s 7
f 74/90/164 68/91/163 75/99/179 81/98/180
s 8
f 75/92/168 76/93/167 83/101/181 82/100/182
s 2
f 76/93/170 77/94/169 84/102/183 83/101/184
s 3
f 77/94/172 78/95/171 107/134/185 108/135/186 85/103/187 84/102/188
s 4
f 78/95/174 79/96/173 86/104/189 85/103/190 108/135/191 109/136/192 107/134/193
s 5
f 79/96/176 80/97/175 116/143/194 87/105/195 86/104/196
s off
f 116/143/197 118/145/198 88/106/199 87/105/200
s 7
f 81/98/180 75/99/179 82/107/201 88/106/202 118/145/203 117/144/204
s off
f 54/61/205 60/67/206 59/66/207 58/65/208 57/64/209 56/63/210 55/62/211
f 82/113/212 83/112/213 84/111/214 85/110/215 86/109/216 87/108/217 88/114/218
s 1
f 61/76/122 62/77/121 90/117/219 89/116/220
s 9
f 89/116/221 90/117/222 92/119/223 91/118/224 102/129/225 101/128/226
s 10
f 90/117/227 69/85/228 93/120/229 92/119/230
s 11
f 69/85/231 68/84/232 99/126/233 100/127/234 94/121/235 93/120/236
s off
f 103/130/237 104/131/238 105/132/239 106/133/240
s 9
f 91/118/224 92/119/223 96/123/241 95/122/242
s 10
f 92/119/230 93/120/229 97/124/243 96/123/244
s 11
f 93/120/236 94/121/235 98/125/245 97/124/246
s 12
f 94/121/247 91/118/248 95/122/249 98/125/250
s off
f 68/84/251 89/116/252 101/128/253 99/126/254
s 12
f 100/127/255 102/129/256 91/118/248 94/121/247
s off
f 99/126/257 101/128/258 104/131/259 103/130/260
s 9
f 101/128/226 102/129/225 105/132/261 104/131/262
s off
f 102/129/263 100/127/264 106/133/265 105/132/266
s 11
f 100/127/234 99/126/233 103/130/267 106/133/268
s off
f 114/140/269 113/141/270 115/142/271
f 107/134/272 109/136/273 110/138/274 111/137/275
s 13
f 109/136/276 108/135/277 112/139/278 110/138/279
s off
f 108/135/280 107/134/281 111/137/282 112/139/283
f 111/137/284 110/138/285 113/141/286 114/140/287
s 13
f 110/138/279 112/139/278 115/142/288 113/141/289
s off
f 112/139/290 111/137/291 114/140/292 115/142/293
s 6
f 80/97/178 81/98/177 117/144/294 116/143/295
s off
f 120/146/296 119/147/297 121/148/298
f 116/143/299 117/144/300 119/147/301 120/146/302
f 117/144/303 118/145/304 121/148/305 119/147/306
f 118/145/307 116/143/308 120/146/309 121/148/310
