# This file uses centimeters as units for non-parametric coordinates.

mtllib tree.mtl
g default
v 2.484444 0.428788 -0.207438
v 2.484444 2.860304 0.831571
v 1.445435 2.860304 -1.251672
v 7.549703 2.860304 -1.251672
v 4.724918 2.860304 0.831571
v 4.724918 0.428788 -0.207438
v 2.419362 24.732197 -1.928611
v 2.883667 24.732197 -1.464306
v 2.883667 31.003418 -1.928611
v 3.884874 31.003418 -1.928611
v 3.884874 24.732197 -1.464306
v 4.349179 24.732197 -1.928611
v 2.419362 24.732197 -2.857405
v 2.883667 31.003418 -2.857405
v 2.883667 24.732197 -3.321710
v 3.884874 24.732197 -3.321710
v 3.884874 31.003418 -2.857405
v 4.349179 24.732197 -2.857405
v 1.445435 2.860304 -3.330105
v 2.484444 2.860304 -6.044082
v 2.484444 0.428788 -5.005075
v 4.724918 0.428788 -5.005075
v 4.724918 2.860304 -6.044082
v 7.549703 2.860304 -3.330105
v -7.135393 -1.760366 -1.251672
v -9.475780 -0.529769 -1.251672
v -9.475780 -0.529769 -3.330105
v -7.135393 -1.760366 -3.330105
v 9.557045 -0.078139 -11.064682
v 7.587045 -1.503387 -10.025672
v 10.166069 -0.919945 -8.350708
v 8.929371 -0.061875 6.024663
v 9.968377 -0.061875 3.941418
v 8.929371 -2.493385 4.985657
v 1.874066 14.280388 -1.419950
v 2.031191 11.532000 -1.678455
v 5.870571 12.673666 -2.437015
v 3.360642 14.253743 -1.424620
v 2.977378 12.502436 -3.924430
v 2.031191 11.505323 -3.057515
v 5.870571 12.646990 -3.816076
v 4.463955 12.475356 -3.927245
v 1.849044 20.609853 -1.816973
v 4.005216 20.815156 -1.071106
v 2.681758 21.865785 -3.401239
v 5.112165 22.026841 -3.602746
v 1.578445 20.638426 -1.059656
v 5.112165 21.946212 -2.450675
v 1.849044 20.690487 -2.969043
v 3.923648 22.040431 -3.383089
v 2.788785 25.422330 4.682575
v 1.546894 25.444589 4.686475
v 3.973665 25.947922 3.330357
v 1.546894 25.771200 3.341806
v 8.189493 26.022333 -3.602746
v 8.189493 26.044616 -2.450675
v 8.189493 28.337377 -3.602746
v 8.189493 28.256737 -2.450675
vt 0.621962 0.055278
vt 0.667714 0.055278
vt 0.618266 0.306087
vt 0.612589 0.245726
vt 0.644895 0.001876
vt 0.626179 0.445723
vt 0.609547 0.445095
vt 0.576315 0.055278
vt 0.582302 0.245140
vt 0.752376 0.551276
vt 0.722844 0.558449
vt 0.617292 0.535631
vt 0.607095 0.535631
vt 0.584245 0.446866
vt 0.563262 0.267039
vt 0.516710 0.055278
vt 0.607095 0.673360
vt 0.586697 0.535631
vt 0.574753 0.472678
vt 0.539529 0.001876
vt 0.586697 0.673360
vt 0.576499 0.535631
vt 0.309146 0.702981
vt 0.309146 0.565252
vt 0.329544 0.565252
vt 0.329544 0.702981
vt 0.298948 0.565252
vt 0.320611 0.504066
vt 0.345913 0.505836
vt 0.339741 0.565252
vt 0.290313 0.479225
vt 0.298077 0.335123
vt 0.320311 0.300421
vt 0.248526 0.084899
vt 0.294279 0.084899
vt 0.193648 0.591951
vt 0.163950 0.580408
vt 0.339925 0.084899
vt 0.350598 0.299835
vt 0.271345 0.031497
vt 0.376711 0.031497
vt 0.353040 0.296065
vt 0.399530 0.084899
vt 0.450188 0.001876
vt 0.509793 0.020364
vt 0.047744 0.903627
vt 0.001992 0.903627
vt 0.024811 0.850226
vt 0.930188 0.296117
vt 0.955490 0.295627
vt 0.955490 0.346470
vt 0.930188 0.344699
vt 0.929888 0.002462
vt 0.960175 0.001876
vt 0.214113 0.708743
vt 0.239415 0.706972
vt 0.239415 0.845565
vt 0.214113 0.847336
vt 0.901355 0.879922
vt 0.901355 0.931322
vt 0.855708 0.931322
vt 0.855708 0.879922
vt 0.818922 0.668650
vt 0.924288 0.668650
vt 0.818922 0.619445
vt 0.924288 0.619445
vt 0.054809 0.872215
vt 0.054809 0.850226
vt 0.075207 0.850226
vt 0.075207 0.872215
vt 0.429701 0.729791
vt 0.472967 0.706972
vt 0.486342 0.766577
vt 0.428881 0.876840
vt 0.366843 0.840054
vt 0.551910 0.677351
vt 0.597557 0.677351
vt 0.597557 0.917204
vt 0.551910 0.917204
vt 0.307589 0.866776
vt 0.245550 0.821024
vt 0.337889 0.706972
vt 0.360708 0.752725
vt 0.032695 0.719786
vt 0.059970 0.719872
vt 0.085992 0.749569
vt 0.032695 0.749318
vt 0.086685 0.846235
vt 0.033388 0.845983
vt 0.780920 0.119455
vt 0.780920 0.066053
vt 0.830126 0.066053
vt 0.830126 0.119455
vt 0.922464 0.001876
vt 0.922464 0.055277
vt 0.800163 0.369679
vt 0.767515 0.370264
vt 0.787604 0.614964
vt 0.760329 0.615453
vt 0.521143 0.934609
vt 0.521143 0.796880
vt 0.543132 0.796880
vt 0.543132 0.934609
vt 0.492478 0.706972
vt 0.545775 0.710854
vt 0.010760 0.139606
vt 0.010760 0.001876
vt 0.032748 0.001876
vt 0.032748 0.139606
vt 0.033600 0.198722
vt 0.006325 0.202558
vt 0.042946 0.139606
vt 0.059702 0.199021
vt 0.045466 0.408792
vt 0.012818 0.408197
vt 0.076359 0.405022
vt 0.051198 0.619959
vt 0.001992 0.619959
vt 0.127287 0.060428
vt 0.127287 0.111271
vt 0.001992 0.673360
vt 0.051198 0.673360
vt 0.157321 0.684493
vt 0.114056 0.715795
vt 0.759385 0.677351
vt 0.812787 0.700170
vt 0.738333 0.940023
vt 0.711307 0.888623
vt 0.603692 0.700170
vt 0.657093 0.677351
vt 0.705172 0.888623
vt 0.678145 0.940023
vt 0.930423 0.554107
vt 0.947080 0.350462
vt 0.998008 0.644116
vt 0.998008 0.692699
vt 0.092820 0.742720
vt 0.154859 0.719786
vt 0.207978 0.833837
vt 0.185159 0.856771
vn -0.465395 -0.885103 0.000000
vn -0.465395 -0.885103 0.000000
vn -0.465395 -0.885103 0.000000
vn -0.465395 -0.885103 0.000000
vn 0.000000 -0.392938 0.919565
vn 0.000000 -0.392938 0.919565
vn 0.000000 -0.392938 0.919565
vn 0.000000 -0.392938 0.919565
vn -0.949736 0.040221 0.310457
vn -0.949736 0.040221 0.310457
vn -0.984114 -0.008639 -0.177328
vn -0.951769 0.039614 0.304246
vn 0.652379 -0.757893 0.000000
vn 0.652379 -0.757893 0.000000
vn 0.652379 -0.757893 0.000000
vn 0.652379 -0.757893 0.000000
vn 0.536459 0.209651 0.817471
vn 0.536459 0.209651 0.817470
vn 0.541100 0.168872 0.823829
vn 0.546961 0.097000 0.831519
vn -0.997271 0.073835 0.000000
vn -0.997271 0.073835 0.000000
vn -0.997271 0.073835 0.000000
vn -0.997271 0.073835 0.000000
vn 0.000000 0.073835 0.997270
vn 0.000000 0.073835 0.997270
vn 0.000000 0.073835 0.997270
vn 0.000000 0.073835 0.997270
vn 0.997271 0.073835 0.000000
vn 0.997271 0.073835 0.000000
vn 0.997271 0.073835 0.000000
vn 0.997271 0.073835 0.000000
vn -0.620686 0.090934 -0.778768
vn -0.620686 0.090934 -0.778768
vn -0.609167 0.047556 -0.791614
vn -0.599756 0.015280 -0.800037
vn 0.000000 0.073835 -0.997270
vn 0.000000 0.073835 -0.997270
vn 0.000000 0.073835 -0.997270
vn 0.000000 0.073835 -0.997270
vn 0.145704 0.167390 -0.975065
vn 0.145704 0.167390 -0.975065
vn -0.021556 0.028198 -0.999370
vn -0.012686 0.058681 -0.998196
vn 0.000000 -0.392938 -0.919565
vn 0.000000 -0.392938 -0.919565
vn 0.000000 -0.392938 -0.919565
vn 0.000000 -0.392938 -0.919565
vn 0.002617 0.194059 0.980986
vn 0.002617 0.194059 0.980986
vn 0.002617 0.194059 0.980986
vn 0.002617 0.194059 0.980986
vn 0.000000 1.000000 0.000000
vn 0.000000 1.000000 0.000000
vn 0.000000 1.000000 0.000000
vn 0.000000 1.000000 0.000000
vn 0.006129 0.025163 -0.999665
vn 0.006129 0.025163 -0.999665
vn 0.003328 0.049699 -0.998759
vn 0.003141 0.051330 -0.998677
vn 0.000000 -1.000000 0.000000
vn 0.000000 -1.000000 0.000000
vn 0.000000 -1.000000 0.000000
vn 0.000000 -1.000000 0.000000
vn 0.985655 0.168770 -0.001302
vn 0.985654 0.168770 -0.001302
vn 0.999999 -0.000667 0.001011
vn 0.999994 0.003360 0.000956
vn -0.997720 0.067493 -0.000521
vn -0.997720 0.067493 -0.000521
vn -0.999555 0.029820 -0.000480
vn -0.999533 0.030553 -0.000481
vn -0.879032 -0.187338 0.438414
vn -0.879032 -0.187338 0.438414
vn -0.879032 -0.187338 0.438414
vn 0.879033 -0.187337 0.438412
vn 0.879033 -0.187337 0.438412
vn 0.879033 -0.187337 0.438412
vn -0.706139 0.052281 0.706140
vn -0.706139 0.052281 0.706140
vn -0.706139 0.052281 0.706140
vn 0.706140 0.052281 0.706140
vn 0.706140 0.052281 0.706140
vn 0.706140 0.052281 0.706140
vn -0.706140 0.052281 -0.706140
vn -0.706140 0.052281 -0.706140
vn -0.706140 0.052281 -0.706140
vn 0.706140 0.052281 -0.706140
vn 0.706140 0.052281 -0.706140
vn 0.706140 0.052281 -0.706140
vn -0.923189 -0.151024 -0.353430
vn -0.923189 -0.151024 -0.353430
vn -0.923189 -0.151024 -0.353430
vn 0.418774 -0.836490 -0.353431
vn 0.418774 -0.836490 -0.353431
vn 0.418774 -0.836490 -0.353431
vn -0.100256 0.186181 0.977387
vn -0.100256 0.186181 0.977387
vn -0.100256 0.186181 0.977387
vn -0.100256 0.186181 0.977387
vn -0.296457 0.955046 0.000000
vn -0.296457 0.955046 0.000000
vn -0.296457 0.955046 0.000000
vn -0.296457 0.955046 0.000000
vn -0.155439 0.288659 -0.944730
vn -0.155439 0.288659 -0.944730
vn -0.155439 0.288659 -0.944730
vn -0.155439 0.288659 -0.944730
vn 0.221894 -0.975071 0.000000
vn 0.221894 -0.975071 0.000000
vn 0.221894 -0.975071 0.000000
vn 0.221894 -0.975071 0.000000
vn -0.777951 0.060397 -0.625416
vn -0.009952 0.825343 -0.564544
vn 0.034176 0.840106 -0.541345
vn -0.777951 0.060397 -0.625416
vn 0.505034 0.842178 -0.188881
vn 0.505034 0.842178 -0.188881
vn 0.127403 -0.830629 0.542055
vn 0.127403 -0.830629 0.542055
vn 0.127403 -0.830629 0.542055
vn 0.127403 -0.830629 0.542055
vn 0.322825 0.897864 0.299372
vn 0.322825 0.897864 0.299372
vn 0.322825 0.897864 0.299372
vn 0.322825 0.897864 0.299372
vn -0.815469 -0.227433 0.532245
vn -0.815469 -0.227433 0.532245
vn -0.815469 -0.227433 0.532245
vn -0.815469 -0.227433 0.532245
vn 0.445833 -0.628108 -0.637741
vn 0.445833 -0.628108 -0.637741
vn 0.445833 -0.628108 -0.637741
vn 0.445833 -0.628108 -0.637741
vn -0.985590 0.076245 -0.150996
vn -0.986115 0.078876 -0.146134
vn 0.609820 0.015620 0.792386
vn 0.570034 -0.004369 0.821610
vn -0.842768 0.094697 -0.529881
vn -0.749322 0.059251 -0.659550
vn -0.881985 0.111912 -0.457798
vn -0.881985 0.111912 -0.457798
vn 0.381691 0.101712 -0.918677
vn 0.339506 0.093826 -0.935912
vn 0.547474 0.124306 -0.827538
vn 0.547474 0.124306 -0.827538
vn -0.039124 0.957606 0.285411
vn -0.039124 0.957606 0.285411
vn -0.039124 0.957606 0.285411
vn -0.039124 0.957606 0.285411
vn 0.001551 0.149341 -0.988784
vn 0.001514 0.152704 -0.988271
vn 0.000823 0.214848 -0.976647
vn 0.000823 0.214848 -0.976647
vn 0.988963 -0.148134 0.002865
vn 0.988794 -0.149257 0.002887
vn 1.000000 0.000000 0.000000
vn 1.000000 0.000000 0.000000
vn -0.999811 0.019421 0.001015
vn -0.999686 0.025036 0.001220
vn -0.962250 0.228910 0.147225
vn -0.962250 0.228910 0.147225
vn 0.732587 0.083554 0.675526
vn 0.732587 0.083554 0.675526
vn -0.001800 0.099370 0.995049
vn -0.001800 0.099370 0.995049
vn -0.001800 0.099370 0.995049
vn -0.001800 0.099370 0.995049
vn 0.964050 0.265523 0.010288
vn 0.964050 0.265523 0.010288
vn 0.964050 0.265523 0.010288
vn 0.964050 0.265523 0.010288
vn -0.990366 0.138369 0.005362
vn -0.990366 0.138369 0.005362
vn -0.005848 -0.479997 0.877251
vn -0.005848 -0.479997 0.877251
vn -0.005848 -0.479997 0.877251
vn -0.005848 -0.479997 0.877251
vn 0.919300 -0.188636 0.345404
vn 0.919300 -0.188636 0.345404
vn 0.919300 -0.188636 0.345404
vn 0.919300 -0.188636 0.345404
vn -0.050908 0.649933 -0.758285
vn -0.050908 0.649933 -0.758285
vn -0.050908 0.649933 -0.758285
vn -0.050908 0.649933 -0.758285
vn -0.998805 -0.040046 0.028011
vn -0.998805 -0.040046 0.028011
vn -0.998805 -0.040046 0.028011
vn -0.998805 -0.040046 0.028011
vn -0.021836 0.016818 -0.999620
vn -0.021836 0.016818 -0.999620
vn -0.898401 0.438105 0.030663
vn -0.898401 0.438105 0.030663
vn -0.898401 0.438105 0.030663
vn -0.898401 0.438105 0.030663
vn -0.001456 0.001093 0.999998
vn -0.001456 0.001093 0.999998
vn -0.001456 0.001093 0.999998
vn -0.001456 0.001093 0.999998
s off
g pCube1
usemtl lambert3SG
f 25/59/1 26/60/2 27/61/3 28/62/4
f 2/90/5 1/91/6 6/92/7 5/93/8
s 1
f 3/1/9 2/2/10 35/3/11 36/4/12
s off
f 4/35/13 6/40/14 22/41/15 24/38/16
s 2
f 5/34/17 4/35/18 37/33/19 38/32/20
s off
f 7/13/21 9/17/22 14/21/23 13/18/24
f 9/100/25 8/101/26 11/102/27 10/103/28
f 10/23/29 12/24/30 18/25/31 17/26/32
s 3
f 13/18/33 15/22/34 45/19/35 49/14/36
s off
f 15/106/37 14/107/38 17/108/39 16/109/40
s 4
f 16/109/41 18/112/42 46/113/43 50/110/44
s off
f 21/121/45 20/118/46 23/117/47 22/122/48
f 2/90/49 5/93/50 38/96/51 35/97/52
f 9/67/53 10/68/54 17/69/55 14/70/56
s 5
f 15/106/57 16/109/58 50/110/59 45/111/60
s off
f 21/63/61 22/65/62 6/66/63 1/64/64
s 6
f 4/35/65 24/38/66 41/39/67 37/33/68
s 7
f 19/8/69 3/1/70 36/4/71 40/9/72
s off
f 1/5/73 2/2/74 3/1/75
f 33/46/76 32/47/77 34/48/78
f 7/13/79 8/12/80 9/17/81
f 10/23/82 11/27/83 12/24/84
f 13/18/85 14/21/86 15/22/87
f 16/30/88 17/26/89 18/25/90
f 19/8/91 20/16/92 21/20/93
f 30/71/94 29/72/95 31/73/96
f 1/125/97 3/126/98 26/127/99 25/128/100
f 3/76/101 19/77/102 27/78/103 26/79/104
f 19/129/105 21/130/106 28/131/107 27/132/108
f 21/63/109 1/64/110 25/59/111 28/62/112
s 8
f 22/122/113 23/117/114 29/123/115 30/124/116
f 23/43/114 24/38/117 31/44/118 29/45/115
s off
f 24/74/119 22/75/120 30/71/121 31/73/122
f 4/80/123 5/81/124 32/82/125 33/83/126
f 5/93/127 6/92/128 34/94/129 32/95/130
f 6/137/131 4/138/132 33/139/133 34/140/134
s 1
f 36/4/12 35/3/11 47/6/135 43/7/136
s 2
f 38/32/20 37/33/19 48/28/137 44/31/138
s 3
f 40/9/139 39/15/140 20/16/141 19/8/142
s 4
f 42/42/143 41/39/144 24/38/145 23/43/146
s off
f 52/84/147 51/85/148 53/86/149 54/87/150
s 5
f 39/115/151 42/114/152 23/117/153 20/118/154
s 6
f 56/49/155 55/50/156 57/51/157 58/52/158
s 7
f 40/9/72 36/4/71 43/7/159 49/14/160
s 3
f 49/14/36 45/19/35 39/15/140 40/9/139
s 4
f 50/110/44 46/113/43 41/116/144 42/114/143
s 5
f 45/111/60 50/110/59 42/114/152 39/115/151
s 1
f 43/7/136 47/6/135 8/12/161 7/13/162
s 2
f 44/31/138 48/28/137 12/24/163 11/27/164
s off
f 47/104/165 44/105/166 11/102/167 8/101/168
f 48/28/169 46/29/170 18/25/171 12/24/172
s 7
f 49/14/160 43/7/159 7/13/173 13/18/174
s off
f 35/97/175 38/96/176 51/98/177 52/99/178
f 38/32/179 44/31/180 53/36/181 51/37/182
f 44/88/183 47/89/184 54/87/185 53/86/186
f 47/6/187 35/3/188 52/10/189 54/11/190
s 6
f 37/53/68 41/54/67 55/50/156 56/49/155
s 4
f 41/116/144 46/113/43 57/119/191 55/120/192
s off
f 46/55/193 48/56/194 58/57/195 57/58/196
f 48/133/197 37/134/198 56/135/199 58/136/200
g default
v -5.823798 25.995130 -6.677533
v 2.356174 24.863231 6.284420
v 10.536346 24.653700 -2.162922
v 7.886317 33.961104 -16.317721
v -4.562108 42.861335 -8.590187
v -6.006281 36.165536 4.149992
v 3.880156 38.473939 12.353608
v 21.501891 32.204198 3.973447
v 21.941877 37.242964 -4.654624
v 9.597164 45.231587 -6.821475
v -0.654910 47.966167 1.373421
v 13.523614 44.077063 5.572874
v -8.342554 32.690903 -8.654803
v 3.302566 36.322854 -9.904895
v -4.191510 32.397531 0.192150
v -2.535731 31.980307 5.627372
v 8.894197 40.514382 -13.707734
v 3.020175 32.882287 10.126610
v 9.276387 34.718758 10.294325
v 19.902458 37.378079 -8.921323
v 13.865158 36.593620 7.267023
v 19.882141 41.519591 -0.162531
vt 0.665132 0.118608
vt 0.665132 0.207294
vt 0.571769 0.269189
vt 0.490358 0.221338
vt 0.712783 0.163927
vt 0.687229 0.340658
vt 0.490358 0.309069
vt 0.508030 0.021052
vt 0.840795 0.194607
vt 0.808598 0.083731
vt 0.665132 0.001732
vt 0.438753 0.430922
vt 0.194867 0.304291
vt 0.138786 0.208881
vt 0.301952 0.102458
vt 0.340918 0.055815
vt 0.118868 0.107421
vt 0.289481 0.001732
vt 0.387817 0.282194
vt 0.149276 0.282194
vt 0.001992 0.282194
vt 0.431182 0.055815
vt 0.083991 0.425661
vt 0.194867 0.457858
vt 0.582003 0.710325
vt 0.404285 0.688229
vt 0.393292 0.461849
vt 0.465331 0.863892
vt 0.216855 0.710325
vt 0.001992 0.867839
vt 0.024089 0.748630
vt 0.097403 0.849617
vt 0.111813 0.461849
vt 0.210720 0.618951
vt 0.024426 0.636622
vt 0.165821 0.744639
vt 0.788424 0.434913
vt 0.876155 0.498654
vt 0.886231 0.577908
vt 0.788424 0.609687
vt 0.998008 0.674688
vt 0.856308 0.732875
vt 0.588138 0.564788
vt 0.907744 0.803671
vt 0.868778 0.846704
vt 0.685694 0.751082
vn -0.069869 -0.996632 -0.042938
vn -0.069869 -0.996632 -0.042938
vn -0.069869 -0.996632 -0.042938
vn 0.086512 -0.824907 -0.558609
vn 0.086512 -0.824907 -0.558609
vn 0.086512 -0.824907 -0.558609
vn -0.431241 0.100902 -0.896577
vn -0.353056 0.088821 -0.931377
vn -0.366528 0.090920 -0.925954
vn -0.431241 0.100902 -0.896577
vn -0.887240 -0.212906 0.409238
vn -0.980411 0.054423 0.189293
vn -0.975676 0.021328 0.218178
vn -0.826240 -0.387220 0.409130
vn -0.826240 -0.387220 0.409130
vn -0.825664 -0.406997 0.390681
vn -0.825834 -0.402889 0.394560
vn 0.370786 -0.847383 0.380078
vn 0.370786 -0.847383 0.380078
vn 0.370786 -0.847383 0.380078
vn 0.578756 -0.627440 -0.520923
vn 0.578756 -0.627440 -0.520923
vn 0.578756 -0.627440 -0.520923
vn -0.693161 0.356176 -0.626631
vn -0.310304 0.457883 -0.833099
vn -0.338322 0.453870 -0.824342
vn -0.891740 0.434311 0.127175
vn -0.891740 0.434311 0.127175
vn -0.891740 0.434311 0.127175
vn -0.592650 -0.217704 0.775481
vn -0.586695 -0.241621 0.772922
vn -0.586719 -0.241527 0.772933
vn -0.592650 -0.217704 0.775481
vn 0.254303 -0.512311 0.820285
vn 0.254303 -0.512311 0.820285
vn 0.245069 -0.505489 0.827298
vn 0.240156 -0.501835 0.830956
vn 0.656770 -0.665285 -0.355033
vn 0.656770 -0.665285 -0.355033
vn 0.656770 -0.665285 -0.355033
vn 0.545123 -0.121398 -0.829520
vn 0.555690 0.287147 -0.780228
vn 0.561839 0.065269 -0.824668
vn 0.545123 -0.121398 -0.829520
vn -0.097937 0.900773 -0.423103
vn -0.097937 0.900773 -0.423103
vn -0.097937 0.900773 -0.423103
vn -0.632557 0.437267 0.639272
vn -0.632557 0.437267 0.639272
vn -0.632557 0.437267 0.639272
vn 0.475139 0.214855 0.853276
vn 0.475653 0.213631 0.853297
vn 0.477111 0.210145 0.853349
vn 0.475139 0.214855 0.853276
vn 0.759800 0.369598 0.534883
vn 0.759800 0.369598 0.534883
vn 0.753029 0.341797 0.562247
vn 0.746241 0.317391 0.585139
vn 0.688933 0.655882 -0.308530
vn 0.464391 0.859666 -0.212873
vn 0.453396 0.866663 -0.208154
vn 0.262684 0.964859 0.006659
vn 0.262684 0.964859 0.006659
vn 0.262684 0.964859 0.006659
vn 0.015794 0.759628 0.650165
vn 0.015794 0.759628 0.650165
vn 0.015794 0.759628 0.650165
vn -0.122567 0.051856 -0.991105
vn -0.983581 0.094306 0.153867
vn -0.983581 0.094306 0.153867
vn -0.787713 -0.584327 0.195113
vn -0.242406 0.465826 -0.851026
vn -0.242406 0.465826 -0.851026
vn -0.564945 -0.318023 0.761380
vn 0.086894 -0.380113 0.920849
vn 0.438924 0.719762 -0.537856
vn 0.482023 0.198257 0.853433
vn 0.698476 0.188186 0.690447
vn 0.447226 0.870492 -0.205505
vn 0.447226 0.870492 -0.205505
s off
g pPlatonic1
usemtl lambert2SG
f 59/168/201 61/166/202 60/165/203
f 59/168/204 62/169/205 61/166/206
s 1
f 59/164/207 71/163/208 72/160/209 62/153/210
s 2
f 59/149/211 73/145/212 71/150/213
s 3
f 59/149/214 60/146/215 74/142/216 73/145/217
s off
f 60/165/218 61/166/219 66/167/220
f 61/159/221 62/153/222 67/156/223
s 4
f 62/170/224 72/171/225 75/172/226
s off
f 63/151/227 64/141/228 69/148/229
s 5
f 64/141/230 74/142/231 76/143/232 65/144/233
s 6
f 60/146/234 66/152/235 77/147/236 76/143/237
s off
f 61/159/238 67/156/239 66/162/240
s 7
f 62/153/241 75/154/242 78/155/243 67/156/244
s off
f 63/173/245 69/174/246 68/175/247
f 64/141/248 65/144/249 69/148/250
s 8
f 65/177/251 77/178/252 79/179/253 70/180/254
s 9
f 66/181/255 67/184/256 80/182/257 79/179/258
s 10
f 67/156/259 78/155/260 80/158/261
s off
f 68/175/262 69/174/263 70/176/264
f 69/183/265 65/177/266 70/180/267
s 1
f 72/160/209 71/163/208 63/161/268
s 2
f 71/150/213 73/145/212 64/141/269 63/151/270
s 3
f 73/145/217 74/142/216 64/141/271
s 4
f 75/154/226 72/160/225 63/161/272 68/157/273
s 5
f 76/143/232 74/142/231 60/146/274
s 6
f 76/143/237 77/147/236 65/144/275
s 7
f 78/155/243 75/154/242 68/157/276
s 8
f 79/179/253 77/178/252 66/181/277
s 9
f 79/179/258 80/182/257 70/180/278
s 10
f 80/182/261 78/185/260 68/186/279 70/180/280
